<svg
	xmlns="http://www.w3.org/2000/svg"
	aria-label="a fuzzy tuft of green moss"
	viewBox="0 0 100 100"
>
	<path
		style="fill: #298e29"
		d="m 26.253917,13.114122 3.650189,17.137481 10.763087,18.052044 -0.408659,3.350471 -1.841127,0.991349 -15.540499,-1.368044 -13.3903584,-3.511158 -7.184647,-4.098231 -1.87482204,0.698484 6.83719204,6.192955 13.5470534,5.713634 17.148802,3.016559 1.39469,2.249784 -1.124893,1.957125 -12.198936,11.044315 -11.565599,5.243782 -6.4173914,3.246399 -0.41428,1.710463 8.2789464,-1.499862 13.012873,-5.003724 13.447448,-10.696856 1.680801,0.729547 0.222439,1.343157 -3.983998,12.128053 -5.730215,9.573597 -0.823624,5.174405 1.16944,1.165102 2.604334,-6.335516 6.612025,-7.08777 4.874534,-11.55989 2.800804,-0.515574 4.48815,1.359246 1.521623,8.687062 5.685014,8.620764 2.75965,6.831678 1.094578,-1.128569 -1.293029,-5.422236 -4.084776,-11.06803 -0.484994,-8.377408 0.194311,-1.192896 1.42954,-1.700726 11.563936,10.644623 9.878262,8.331535 8.732915,3.390708 -0.387305,-1.402757 -5.294686,-3.023816 -10.445054,-10.705792 -9.561599,-13.627899 -0.438945,-1.602755 1.001398,-1.666754 17.376932,-3.986302 9.537375,-6.940531 4.325785,-4.636405 0.211208,-1.557106 -6.15842,4.279925 -10.413771,5.155697 -15.838715,1.696223 -0.83461,-1.144484 0.774499,-2.593247 9.737644,-16.194355 3.925704,-17.214082 0.07146,-10.2772892 -1.706242,-1.13628 -2.009721,9.2163702 -5.894265,16.88027 L 58.971291,47.946398 54.793513,48.532286 47.498842,45.59657 36.36079,28.950655 29.898368,11.198146 28.263612,3.9915048 l -2.070766,1.52923 z"
	/>
</svg>
